
<svg width="1440" height="1024" viewBox="0 0 1440 1024" fill="none" xmlns="http://www.w3.org/2000/svg">
  <g opacity="0.2">
    <circle cx="100" cy="100" r="10" fill="#0077c8" />
    <circle cx="300" cy="200" r="15" fill="#7e5af5" />
    <circle cx="500" cy="150" r="8" fill="#0077c8" />
    <circle cx="700" cy="300" r="12" fill="#7e5af5" />
    <circle cx="900" cy="180" r="9" fill="#0077c8" />
    <circle cx="1100" cy="250" r="14" fill="#7e5af5" />
    <circle cx="1300" cy="120" r="11" fill="#0077c8" />
    
    <circle cx="200" cy="400" r="10" fill="#7e5af5" />
    <circle cx="400" cy="350" r="15" fill="#0077c8" />
    <circle cx="600" cy="450" r="8" fill="#7e5af5" />
    <circle cx="800" cy="380" r="12" fill="#0077c8" />
    <circle cx="1000" cy="420" r="9" fill="#7e5af5" />
    <circle cx="1200" cy="370" r="14" fill="#0077c8" />
    <circle cx="1400" cy="430" r="11" fill="#7e5af5" />
    
    <circle cx="150" cy="600" r="10" fill="#0077c8" />
    <circle cx="350" cy="550" r="15" fill="#7e5af5" />
    <circle cx="550" cy="650" r="8" fill="#0077c8" />
    <circle cx="750" cy="580" r="12" fill="#7e5af5" />
    <circle cx="950" cy="620" r="9" fill="#0077c8" />
    <circle cx="1150" cy="570" r="14" fill="#7e5af5" />
    <circle cx="1350" cy="630" r="11" fill="#0077c8" />
    
    <circle cx="250" cy="800" r="10" fill="#7e5af5" />
    <circle cx="450" cy="750" r="15" fill="#0077c8" />
    <circle cx="650" cy="850" r="8" fill="#7e5af5" />
    <circle cx="850" cy="780" r="12" fill="#0077c8" />
    <circle cx="1050" cy="820" r="9" fill="#7e5af5" />
    <circle cx="1250" cy="770" r="14" fill="#0077c8" />
    <circle cx="1350" cy="830" r="11" fill="#7e5af5" />
  </g>
</svg>
